<?xml version="1.0" standalone="no"?>
<!DOCTYPE svg PUBLIC "-//W3C//DTD SVG 20010904//EN"
 "http://www.w3.org/TR/2001/REC-SVG-20010904/DTD/svg10.dtd">
<svg version="1.0" xmlns="http://www.w3.org/2000/svg"
 width="512.000000pt" height="512.000000pt" viewBox="0 0 512.000000 512.000000"
 preserveAspectRatio="xMidYMid meet">
<metadata>
Created by potrace 1.11, written by Peter Selinger 2001-2013
</metadata>
<g transform="translate(0.000000,512.000000) scale(0.100000,-0.100000)"
fill="#000000" stroke="none">
<path d="M637 5099 c-67 -35 -91 -93 -141 -339 -50 -247 -68 -583 -42 -798 29
-244 87 -464 170 -647 20 -42 36 -88 36 -101 0 -18 -33 -57 -118 -142 -208
-207 -336 -408 -432 -678 -68 -193 -110 -428 -110 -619 l0 -104 62 26 c62 25
221 63 267 63 l23 0 -24 -33 c-41 -53 -122 -197 -162 -284 -50 -112 -94 -293
-71 -293 3 0 26 16 52 36 62 47 124 78 208 102 71 21 165 37 165 29 0 -3 -14
-38 -31 -78 -73 -170 -94 -331 -64 -474 14 -67 86 -235 101 -235 4 0 29 21 56
46 55 51 128 87 215 105 l60 12 134 -85 c266 -169 479 -275 699 -349 125 -41
295 -79 358 -79 31 0 55 -10 107 -46 37 -25 92 -57 124 -71 71 -32 217 -63
299 -63 131 0 292 55 402 138 41 32 63 42 92 42 108 0 370 73 559 156 163 71
440 225 588 327 44 30 45 30 105 18 85 -17 176 -63 225 -113 49 -48 44 -51 96
56 91 185 84 396 -21 635 -13 30 -22 56 -19 59 3 3 44 -2 92 -12 101 -19 227
-77 293 -134 l43 -36 -6 59 c-13 125 -83 298 -191 469 -31 48 -56 90 -56 93 0
16 214 -32 294 -66 l46 -20 0 107 c0 260 -65 546 -176 782 -93 196 -201 348
-361 509 -62 63 -116 125 -119 138 -4 15 8 55 36 118 176 402 223 859 139
1355 -25 147 -64 312 -84 350 -38 73 -146 111 -225 77 -94 -40 -419 -359 -677
-666 -76 -90 -147 -167 -158 -171 -12 -5 -52 3 -100 18 -118 36 -319 43 -436
13 -97 -24 -188 -65 -278 -124 -56 -36 -71 -41 -121 -42 -49 0 -64 5 -101 31
-62 44 -172 98 -254 124 -107 34 -323 39 -425 10 -41 -12 -96 -24 -121 -27
l-46 -5 -170 199 c-93 109 -219 249 -279 312 -124 129 -311 294 -366 322 -48
24 -113 24 -161 -2z m1038 -2464 c84 -22 150 -61 207 -124 157 -172 190 -444
81 -671 -39 -81 -153 -191 -226 -218 -304 -114 -587 133 -587 512 0 78 31 201
67 269 41 74 123 159 191 195 99 53 168 62 267 37z m1933 0 c137 -18 282 -162
335 -330 29 -95 31 -283 3 -365 -67 -197 -210 -330 -372 -346 -213 -22 -418
149 -469 394 -52 241 56 511 244 611 56 30 151 52 196 45 11 -1 39 -5 63 -9z"/>
<path d="M1454 2441 c-190 -91 -266 -283 -185 -466 28 -63 104 -140 170 -172
50 -25 67 -28 156 -28 89 1 106 4 153 28 68 36 129 98 161 167 21 46 26 70 26
145 0 77 -4 98 -26 146 -37 79 -90 133 -167 171 -55 27 -80 34 -147 36 -72 3
-86 0 -141 -27z m281 -176 c37 -36 34 -86 -7 -120 -25 -21 -38 -25 -62 -21
-45 9 -70 39 -70 82 0 73 88 111 139 59z m-220 -220 c35 -34 33 -78 -4 -116
-38 -37 -82 -39 -116 -4 -35 34 -33 78 4 116 38 37 82 39 116 4z"/>
<path d="M3423 2456 c-59 -19 -104 -49 -153 -102 -66 -72 -85 -123 -85 -229 0
-78 4 -98 29 -152 30 -65 97 -137 154 -167 94 -49 223 -51 317 -6 57 27 131
102 161 163 89 175 10 390 -174 475 -68 31 -184 39 -249 18z m252 -191 c26
-25 33 -72 15 -104 -16 -31 -65 -46 -100 -31 -37 15 -50 37 -50 84 0 68 86
101 135 51z m-220 -220 c41 -40 33 -105 -16 -130 -67 -35 -130 2 -122 72 7 75
88 109 138 58z"/>
</g>
</svg>
